<?xml version="1.0" encoding="UTF-8"?>
<!DOCTYPE svg PUBLIC "-//W3C//DTD SVG 1.1//EN" "http://www.w3.org/Graphics/SVG/1.1/DTD/svg11.dtd">
<!-- Creator: CorelDRAW -->
<svg xmlns="http://www.w3.org/2000/svg" xml:space="preserve" width="53.7115mm" height="7.8688mm" version="1.1" style="shape-rendering:geometricPrecision; text-rendering:geometricPrecision; image-rendering:optimizeQuality; fill-rule:evenodd; clip-rule:evenodd"
viewBox="0 0 2428.59 355.79"
 xmlns:xlink="http://www.w3.org/1999/xlink"
 xmlns:xodm="http://www.corel.com/coreldraw/odm/2003">
 <defs>
  <style type="text/css">
   <![CDATA[
    .fil0 {fill:#848688;fill-rule:nonzero}
    .fil1 {fill:#373435;fill-rule:nonzero}
   ]]>
  </style>
 </defs>
 <g id="Camada_x0020_1">
  <metadata id="CorelCorpID_0Corel-Layer"/>
  <path class="fil0" d="M398.69 42.38l69.79 0 0 15.98 -44.81 46.77 46.49 0 0 17.2 -75.81 0 0 -16.6 44.34 -46.26 -39.99 0 0 -17.08zm82.64 0l24.68 0 0 30.2 25.89 -30.2 32.84 0 -29.18 30.04 30.52 49.91 -30.39 0 -16.86 -32.83 -12.82 13.36 0 19.47 -24.68 0 0 -79.95zm125.89 53.5l23.45 -1.47c0.5,3.8 1.55,6.7 3.11,8.67 2.55,3.22 6.18,4.84 10.91,4.84 3.52,0 6.24,-0.82 8.13,-2.47 1.92,-1.65 2.86,-3.57 2.86,-5.75 0,-2.06 -0.89,-3.92 -2.69,-5.56 -1.81,-1.64 -6.01,-3.17 -12.62,-4.63 -10.83,-2.42 -18.53,-5.66 -23.15,-9.69 -4.65,-4.02 -6.98,-9.16 -6.98,-15.41 0,-4.1 1.19,-7.97 3.57,-11.61 2.38,-3.67 5.95,-6.53 10.74,-8.62 4.78,-2.08 11.33,-3.12 19.65,-3.12 10.22,0 18,1.9 23.35,5.71 5.36,3.8 8.54,9.84 9.57,18.14l-23.23 1.38c-0.61,-3.63 -1.92,-6.27 -3.89,-7.91 -1.99,-1.65 -4.73,-2.47 -8.21,-2.47 -2.87,0 -5.04,0.61 -6.49,1.82 -1.45,1.21 -2.18,2.7 -2.18,4.45 0,1.27 0.6,2.4 1.77,3.42 1.13,1.06 3.89,2.03 8.25,2.94 10.79,2.32 18.52,4.69 23.17,7.07 4.67,2.38 8.08,5.32 10.2,8.86 2.12,3.51 3.18,7.46 3.18,11.83 0,5.12 -1.42,9.84 -4.25,14.18 -2.84,4.32 -6.79,7.61 -11.89,9.85 -5.08,2.23 -11.48,3.35 -19.22,3.35 -13.59,0 -23,-2.62 -28.23,-7.85 -5.23,-5.23 -8.18,-11.87 -8.88,-19.93zm147.74 2.99l-44.55 0c0.41,3.55 1.36,6.22 2.91,7.97 2.14,2.51 4.95,3.76 8.41,3.76 2.19,0 4.28,-0.54 6.24,-1.62 1.21,-0.69 2.51,-1.9 3.89,-3.63l21.88 2.01c-3.35,5.81 -7.39,9.99 -12.12,12.51 -4.73,2.53 -11.52,3.79 -20.36,3.79 -7.69,0 -13.71,-1.08 -18.13,-3.26 -4.39,-2.16 -8.04,-5.6 -10.94,-10.31 -2.88,-4.73 -4.34,-10.27 -4.34,-16.63 0,-9.07 2.9,-16.41 8.71,-22.02 5.79,-5.6 13.81,-8.41 24.03,-8.41 8.3,0 14.83,1.27 19.63,3.78 4.8,2.51 8.46,6.14 10.98,10.92 2.51,4.76 3.76,10.98 3.76,18.63l0 2.51zm-22.55 -10.61c-0.43,-4.32 -1.6,-7.41 -3.48,-9.26 -1.88,-1.86 -4.34,-2.79 -7.41,-2.79 -3.54,0 -6.37,1.42 -8.49,4.23 -1.34,1.75 -2.2,4.35 -2.57,7.83l21.94 0zm32.94 -23.89l20.8 0 0 9.45c2.01,-4.11 4.08,-6.95 6.2,-8.49 2.14,-1.55 4.76,-2.31 7.89,-2.31 3.29,0 6.89,1.03 10.77,3.07l-6.89 15.76c-2.62,-1.1 -4.71,-1.64 -6.24,-1.64 -2.9,0 -5.17,1.21 -6.77,3.61 -2.29,3.39 -3.44,9.73 -3.44,19.02l0 19.47 -22.33 0 0 -57.95zm49.24 0l23.09 0 11.24 36.71 11.61 -36.71 22.39 0 -24.56 57.95 -19.69 0 -24.08 -57.95zm75.57 -22l22.22 0 0 15.07 -22.22 0 0 -15.07zm0 22l22.22 0 0 57.95 -22.22 0 0 -57.95zm97.37 -22l0 79.95 -20.81 0 0 -8.58c-2.9,3.64 -5.56,6.12 -7.96,7.41 -3.18,1.67 -6.76,2.51 -10.68,2.51 -7.87,0 -13.9,-2.99 -18.07,-9.01 -4.15,-6.01 -6.24,-13.32 -6.24,-21.9 0,-9.62 2.31,-16.97 6.9,-22.07 4.6,-5.1 10.42,-7.65 17.51,-7.65 3.46,0 6.59,0.58 9.4,1.73 2.83,1.18 5.33,2.9 7.5,5.23l0 -27.62 22.44 0zm-22.28 50.75c0,-4.56 -0.97,-7.97 -2.88,-10.2 -1.92,-2.25 -4.35,-3.37 -7.29,-3.37 -2.57,0 -4.73,1.08 -6.47,3.24 -1.73,2.14 -2.61,5.75 -2.61,10.83 0,4.74 0.9,8.21 2.7,10.42 1.79,2.22 4.02,3.31 6.66,3.31 2.83,0 5.17,-1.12 7.07,-3.33 1.88,-2.23 2.83,-5.86 2.83,-10.9zm33.11 0.39c0,-8.86 2.98,-16.15 8.93,-21.88 5.95,-5.73 13.99,-8.6 24.11,-8.6 11.59,0 20.34,3.37 26.26,10.11 4.74,5.43 7.13,12.12 7.13,20.04 0,8.93 -2.94,16.23 -8.84,21.94 -5.9,5.7 -14.07,8.54 -24.49,8.54 -9.29,0 -16.81,-2.36 -22.54,-7.11 -7.05,-5.86 -10.57,-13.55 -10.57,-23.04zm22.22 -0.04c0,5.19 1.04,9.03 3.13,11.5 2.08,2.48 4.69,3.72 7.85,3.72 3.18,0 5.79,-1.23 7.84,-3.66 2.05,-2.44 3.07,-6.37 3.07,-11.77 0,-5.04 -1.02,-8.78 -3.09,-11.26 -2.07,-2.46 -4.62,-3.68 -7.67,-3.68 -3.22,0 -5.88,1.24 -7.98,3.74 -2.1,2.51 -3.15,6.31 -3.15,11.41zm55.16 -29.11l20.8 0 0 9.45c2.01,-4.11 4.08,-6.95 6.2,-8.49 2.14,-1.55 4.76,-2.31 7.89,-2.31 3.29,0 6.89,1.03 10.77,3.07l-6.89 15.76c-2.62,-1.1 -4.71,-1.64 -6.24,-1.64 -2.9,0 -5.17,1.21 -6.77,3.61 -2.29,3.39 -3.44,9.73 -3.44,19.02l0 19.47 -22.33 0 0 -57.95zm115.45 34.5l-44.55 0c0.41,3.55 1.36,6.22 2.91,7.97 2.14,2.51 4.95,3.76 8.41,3.76 2.19,0 4.28,-0.54 6.24,-1.62 1.21,-0.69 2.51,-1.9 3.89,-3.63l21.88 2.01c-3.35,5.81 -7.39,9.99 -12.12,12.51 -4.73,2.53 -11.52,3.79 -20.36,3.79 -7.69,0 -13.71,-1.08 -18.13,-3.26 -4.39,-2.16 -8.04,-5.6 -10.94,-10.31 -2.88,-4.73 -4.34,-10.27 -4.34,-16.63 0,-9.07 2.9,-16.41 8.71,-22.02 5.79,-5.6 13.81,-8.41 24.03,-8.41 8.3,0 14.83,1.27 19.63,3.78 4.8,2.51 8.46,6.14 10.98,10.92 2.51,4.76 3.76,10.98 3.76,18.63l0 2.51zm-22.55 -10.61c-0.43,-4.32 -1.6,-7.41 -3.48,-9.26 -1.88,-1.86 -4.34,-2.79 -7.41,-2.79 -3.54,0 -6.37,1.42 -8.49,4.23 -1.34,1.75 -2.2,4.35 -2.57,7.83l21.94 0zm28.81 17.98l22 -2.01c0.91,2.6 2.18,4.46 3.82,5.58 1.64,1.12 3.81,1.68 6.55,1.68 2.98,0 5.29,-0.63 6.93,-1.92 1.28,-0.93 1.91,-2.12 1.91,-3.54 0,-1.6 -0.84,-2.85 -2.51,-3.72 -1.19,-0.61 -4.37,-1.38 -9.53,-2.29 -7.7,-1.34 -13.04,-2.59 -16.06,-3.74 -3,-1.13 -5.51,-3.09 -7.57,-5.81 -2.05,-2.74 -3.07,-5.84 -3.07,-9.34 0,-3.82 1.09,-7.11 3.31,-9.86 2.22,-2.78 5.27,-4.84 9.16,-6.2 3.89,-1.36 9.1,-2.05 15.63,-2.05 6.89,0 11.99,0.52 15.26,1.58 3.3,1.06 6.03,2.7 8.22,4.91 2.2,2.23 4.02,5.23 5.47,9.03l-20.99 2.01c-0.54,-1.84 -1.45,-3.2 -2.72,-4.07 -1.73,-1.15 -3.83,-1.73 -6.31,-1.73 -2.5,0 -4.32,0.45 -5.45,1.34 -1.13,0.89 -1.71,1.97 -1.71,3.24 0,1.43 0.73,2.49 2.16,3.22 1.43,0.74 4.59,1.39 9.45,1.97 7.39,0.84 12.86,2.01 16.47,3.5 3.59,1.49 6.34,3.61 8.24,6.38 1.92,2.78 2.87,5.81 2.87,9.12 0,3.35 -1.01,6.61 -3.03,9.77 -2.01,3.17 -5.19,5.67 -9.53,7.56 -4.34,1.88 -10.25,2.81 -17.74,2.81 -10.57,0 -18.1,-1.51 -22.59,-4.54 -4.49,-3.02 -7.37,-7.31 -8.64,-12.88zm67.42 -63.87l43.66 0 0 10.61 -15.52 0 0 33.83 -12.84 0 0 -33.83 -15.3 0 0 -10.61zm48.68 0l19.48 0 6.18 24.27 6.47 -24.27 18.89 0 0 44.44 -12.06 0 0 -31.41 -8.36 31.41 -10.08 0 -8.25 -31.41 0 31.41 -12.28 0 0 -44.44z"/>
  <path class="fil1" d="M395.02 353.11l45.94 0 0 -59.34 -45.94 -45.94 0 105.28zm108.73 -82.31l75.04 -49.77 1.53 -1.15 0 -55.13 -109.87 72.74 -73.5 -69.68 -2.3 0 0 59.34 126.33 125.95 65.08 0 -82.31 -82.31zm120.97 -102.98l0 22.97 45.94 45.94 0 -68.91 -45.94 0zm0 185.29l45.94 0 0 -95.71 -45.94 -45.94 0 141.65zm84.22 0l45.94 0 0 -60.48 -45.94 -45.94 0 106.42zm125.95 -145.86l-1.15 1.15 0 76.95 -116.76 -116.76 -1.15 -1.15 -7.27 0 0 57.8 45.94 45.94 0 0 29.48 29.48 50.53 50.53 1.91 1.91 43.26 0 0 -190.65 -44.79 44.79zm135.14 29.1c2.3,-4.59 5.36,-8.81 9.19,-12.63 9.19,-9.19 21.44,-14.17 34.45,-14.17 13.02,0 25.27,4.98 34.45,14.17 4.59,4.59 8.04,9.95 10.34,15.69l0.76 2.3 48.62 0 -1.15 -4.59c-4.59,-20.67 -16.46,-39.43 -33.31,-52.83 -16.84,-13.78 -38.28,-21.44 -60.1,-21.44 -31.39,0 -60.87,15.31 -78.86,40.96l-1.91 2.68 34.83 34.83 2.68 -4.97zm87.28 40.58c-2.3,5.74 -5.74,11.1 -10.34,15.7 -3.83,3.83 -8.04,6.89 -12.63,9.19 -1.53,0.76 -3.06,1.53 -4.59,1.91 -4.59,1.91 -9.57,3.06 -14.55,3.45 -2.3,0 -4.59,0 -6.89,0 -11.48,-0.76 -22.21,-5.74 -30.24,-13.78 -8.04,-8.04 -13.02,-18.76 -13.78,-30.24l0 -1.53 -39.81 -39.82 -1.92 5.74c-3.45,10.34 -5.36,21.06 -5.36,31.78 0,25.65 9.95,49.76 27.95,67.76 17.99,17.99 42.11,27.94 67.76,27.94 13.01,0 25.65,-2.68 37.52,-7.65 2.3,-0.76 4.59,-1.91 6.89,-3.06 12.25,-6.51 23.35,-15.7 31.77,-26.41 8.42,-11.1 14.55,-24.12 17.61,-37.9l1.15 -4.59 -48.62 0 -1.91 1.53zm88.43 76.18l45.94 0 0 -64.7 -45.94 -45.94 0 110.64zm115.62 -185.67l0 70.06 -34.84 0 -34.84 -34.84 0 -35.22 -45.94 0 0 54.36 61.64 61.64 53.98 0 0 69.67 45.94 0 0 -185.29 -45.94 -0.38zm84.22 185.67l53.6 0 52.45 -86.14 -26.8 -44.41 -79.24 130.54zm114.47 -188.73l-26.8 44.03 76.56 126.72 11.1 17.99 53.59 0 -114.46 -188.73zm153.13 188.73l45.94 0 0 -60.48 -45.94 -45.94 0 106.42zm125.95 -145.86l-1.15 1.15 0 76.95 -116.76 -116.76 -1.15 -1.15 -7.27 0 0 57.8 45.94 45.94 0 0 29.48 29.48 50.53 50.53 1.91 1.91 43.26 0 0 -190.65 -44.79 44.79zm138.2 25.39c1.53,-1.91 3.07,-3.89 4.59,-5.42 8.81,-8.87 20.67,-13.84 33.31,-13.84 12.63,0 24.5,4.97 33.31,13.84 4.21,4.27 7.66,9.25 9.96,15.06l0.76 2.3 47.47 0 -1.15 -4.59c-4.98,-23.16 -18.38,-43.07 -37.9,-56.47 -15.7,-10.72 -34.07,-16.46 -52.83,-16.46 -27.18,0 -52.83,11.87 -70.44,32.92l-2.3 2.68 32.92 33.05 2.3 -3.06zm47.47 43.13l16.84 22.97c-7.65,5.36 -16.84,8.04 -26.41,8.04 -12.63,0 -24.5,-4.97 -33.31,-13.84 -8.8,-8.8 -13.78,-20.74 -13.78,-33.43 0,-2.3 0,-4.59 0.38,-6.95l0.38 -1.92 -35.6 -35.73 -2.3 4.59c-6.13,12.7 -9.19,26.16 -9.19,40.39 0,25.01 9.57,48.43 27.18,66.04 17.61,17.61 40.96,27.18 65.85,27.18 16.46,0 32.54,-4.21 46.7,-12.63l0 11.87 45.94 0 0 -76.57 -82.69 0zm166.91 31.39l0 -13.02 -45.94 -45.94 0 104.9 154.66 0 0 -45.94 -108.73 0zm108.73 -23.73l0 -45.94 -80.01 0 -24.12 -24.12 103.75 0 0 -45.94 -154.66 0 0 59.72 55.89 55.89 99.15 0.38zm156.57 0c0.77,0 1.53,0 2.3,0l0.77 0 0 0c14.93,-0.38 28.71,-6.51 39.05,-16.85 10.34,-10.34 16.46,-24.12 17.23,-39.05 0.38,-1.91 0.38,-3.83 0.38,-5.74 0,-4.21 -0.38,-8.42 -1.53,-12.63 -2.3,-9.57 -7.28,-18.38 -14.17,-25.27 -7.65,-7.65 -17.23,-12.63 -27.56,-14.55 -3.45,-0.76 -6.89,-1.15 -10.34,-1.15l-124.04 0 0 67.76 45.94 45.94 0 0 71.21 70.82 1.15 1.15 71.21 0 -71.59 -70.44zm-2.68 -45.17l-44.03 0 -21.82 -21.82 80.39 0c11.39,-0.21 -5.31,21.87 -14.55,21.82zm-114.47 117.53l45.94 0 0 -50.92 -45.94 -45.94 0 96.86z"/>
  <path class="fil1" d="M130.25 0l86.5 86.5 136.36 0 0 -86.5 -222.85 0zm135.34 136.87l-0.51 0c-51.9,0 -103.8,0 -155.7,0 -12.21,0 -22.39,-10.17 -22.39,-22.39 0,-12.21 10.18,-22.39 22.39,-22.39l64.62 0 -84.97 -84.97 -3.56 1.02c-2.54,0.51 -5.09,1.02 -7.63,2.03 -17.29,5.09 -33.07,14.75 -45.79,27.47 -12.72,12.72 -22.39,28.49 -27.48,45.79 -3.05,10.17 -4.58,20.86 -4.58,31.55 0,10.68 1.52,21.37 4.58,31.54 5.09,17.3 14.76,33.08 27.48,45.79 12.72,12.72 28.49,22.39 45.79,27.47 10.18,3.06 20.86,4.58 31.55,4.58l131.78 0c12.21,0 22.39,10.18 22.39,22.39 0,12.21 -10.17,22.39 -22.39,22.39l-240.66 0 0 86.49 240.66 0c23.91,0 46.81,-7.63 65.63,-21.88 18.32,-13.74 32.05,-33.58 38.67,-55.46 3.05,-10.17 4.58,-20.86 4.58,-31.55 0,-47.39 -29.15,-109.9 -84.46,-109.9z"/>
 </g>
</svg>
