<?xml version="1.0" encoding="UTF-8"?>
<!DOCTYPE svg PUBLIC "-//W3C//DTD SVG 1.1//EN" "http://www.w3.org/Graphics/SVG/1.1/DTD/svg11.dtd">
<!-- Creator: CorelDRAW -->
<svg xmlns="http://www.w3.org/2000/svg" xml:space="preserve" width="1920px" height="281px" version="1.1" style="shape-rendering:geometricPrecision; text-rendering:geometricPrecision; image-rendering:optimizeQuality; fill-rule:evenodd; clip-rule:evenodd"
viewBox="0 0 138.8 20.33"
 xmlns:xlink="http://www.w3.org/1999/xlink"
 xmlns:xodm="http://www.corel.com/coreldraw/odm/2003">
 <defs>
  <style type="text/css">
   <![CDATA[
    .fil0 {fill:#999999;fill-rule:nonzero}
    .fil1 {fill:white;fill-rule:nonzero}
   ]]>
  </style>
 </defs>
 <g id="Camada_x0020_1">
  <metadata id="CorelCorpID_0Corel-Layer"/>
  <path class="fil0" d="M22.81 2.42l3.98 0 0 0.92 -2.56 2.67 2.66 0 0 0.98 -4.33 0 0 -0.95 2.53 -2.64 -2.28 0 0 -0.98zm4.72 0l1.41 0 0 1.73 1.48 -1.73 1.87 0 -1.66 1.72 1.74 2.85 -1.74 0 -0.96 -1.88 -0.73 0.77 0 1.11 -1.41 0 0 -4.57zm7.19 3.06l1.34 -0.09c0.03,0.22 0.09,0.39 0.18,0.5 0.15,0.18 0.35,0.28 0.62,0.28 0.2,0 0.36,-0.05 0.47,-0.14 0.11,-0.1 0.16,-0.21 0.16,-0.33 0,-0.12 -0.05,-0.23 -0.15,-0.32 -0.11,-0.09 -0.35,-0.18 -0.72,-0.27 -0.62,-0.13 -1.06,-0.32 -1.33,-0.55 -0.26,-0.23 -0.4,-0.52 -0.4,-0.88 0,-0.23 0.07,-0.46 0.21,-0.66 0.13,-0.21 0.34,-0.38 0.61,-0.5 0.28,-0.12 0.65,-0.17 1.12,-0.17 0.59,0 1.03,0.1 1.34,0.32 0.31,0.22 0.49,0.56 0.55,1.04l-1.33 0.08c-0.04,-0.21 -0.11,-0.36 -0.22,-0.45 -0.12,-0.1 -0.27,-0.15 -0.47,-0.15 -0.17,0 -0.29,0.04 -0.37,0.11 -0.09,0.07 -0.13,0.15 -0.13,0.25 0,0.07 0.04,0.14 0.1,0.2 0.07,0.06 0.23,0.11 0.47,0.17 0.62,0.13 1.06,0.26 1.33,0.4 0.27,0.14 0.46,0.3 0.58,0.51 0.12,0.2 0.18,0.42 0.18,0.67 0,0.29 -0.08,0.56 -0.24,0.81 -0.16,0.25 -0.39,0.44 -0.68,0.57 -0.29,0.12 -0.66,0.19 -1.1,0.19 -0.77,0 -1.31,-0.15 -1.61,-0.45 -0.3,-0.3 -0.47,-0.68 -0.51,-1.14zm8.44 0.17l-2.54 0c0.02,0.2 0.08,0.36 0.16,0.46 0.13,0.14 0.29,0.21 0.49,0.21 0.12,0 0.24,-0.03 0.35,-0.09 0.07,-0.04 0.14,-0.11 0.22,-0.21l1.25 0.12c-0.19,0.33 -0.42,0.57 -0.69,0.71 -0.27,0.14 -0.66,0.22 -1.16,0.22 -0.44,0 -0.79,-0.06 -1.04,-0.19 -0.25,-0.12 -0.46,-0.32 -0.62,-0.59 -0.17,-0.27 -0.25,-0.59 -0.25,-0.95 0,-0.52 0.17,-0.94 0.5,-1.26 0.33,-0.32 0.79,-0.48 1.37,-0.48 0.47,0 0.85,0.07 1.12,0.22 0.28,0.14 0.49,0.35 0.63,0.62 0.14,0.27 0.21,0.63 0.21,1.07l0 0.14zm-1.28 -0.61c-0.03,-0.24 -0.1,-0.42 -0.2,-0.53 -0.11,-0.1 -0.25,-0.16 -0.43,-0.16 -0.2,0 -0.36,0.09 -0.48,0.25 -0.08,0.1 -0.13,0.25 -0.15,0.44l1.26 0zm1.88 -1.36l1.19 0 0 0.54c0.11,-0.24 0.23,-0.4 0.35,-0.49 0.12,-0.08 0.27,-0.13 0.45,-0.13 0.19,0 0.4,0.06 0.62,0.18l-0.4 0.9c-0.15,-0.06 -0.27,-0.1 -0.35,-0.1 -0.17,0 -0.3,0.07 -0.39,0.21 -0.13,0.19 -0.2,0.56 -0.2,1.09l0 1.11 -1.27 0 0 -3.31zm2.81 0l1.32 0 0.64 2.1 0.67 -2.1 1.28 0 -1.41 3.31 -1.12 0 -1.38 -3.31zm4.32 -1.26l1.27 0 0 0.86 -1.27 0 0 -0.86zm0 1.26l1.27 0 0 3.31 -1.27 0 0 -3.31zm5.56 -1.26l0 4.57 -1.19 0 0 -0.49c-0.16,0.21 -0.31,0.35 -0.45,0.42 -0.18,0.1 -0.39,0.15 -0.61,0.15 -0.45,0 -0.8,-0.17 -1.03,-0.52 -0.24,-0.34 -0.36,-0.76 -0.36,-1.25 0,-0.55 0.13,-0.97 0.39,-1.26 0.27,-0.29 0.6,-0.44 1.01,-0.44 0.19,0 0.37,0.04 0.53,0.1 0.16,0.07 0.31,0.17 0.43,0.3l0 -1.58 1.28 0zm-1.27 2.9c0,-0.26 -0.05,-0.45 -0.16,-0.58 -0.11,-0.13 -0.25,-0.19 -0.42,-0.19 -0.15,0 -0.27,0.06 -0.37,0.18 -0.1,0.12 -0.15,0.33 -0.15,0.62 0,0.27 0.05,0.47 0.15,0.6 0.11,0.12 0.23,0.19 0.39,0.19 0.16,0 0.29,-0.07 0.4,-0.2 0.11,-0.12 0.16,-0.33 0.16,-0.62zm1.89 0.02c0,-0.5 0.17,-0.92 0.51,-1.25 0.34,-0.32 0.8,-0.49 1.38,-0.49 0.66,0 1.16,0.19 1.5,0.58 0.27,0.31 0.41,0.69 0.41,1.14 0,0.52 -0.17,0.93 -0.51,1.26 -0.33,0.32 -0.8,0.49 -1.4,0.49 -0.53,0 -0.96,-0.14 -1.28,-0.41 -0.41,-0.33 -0.61,-0.77 -0.61,-1.32zm1.27 0c0,0.3 0.06,0.52 0.18,0.66 0.12,0.14 0.27,0.21 0.45,0.21 0.18,0 0.33,-0.07 0.45,-0.21 0.11,-0.14 0.17,-0.36 0.17,-0.67 0,-0.29 -0.06,-0.5 -0.17,-0.64 -0.12,-0.14 -0.27,-0.21 -0.44,-0.21 -0.19,0 -0.34,0.07 -0.46,0.21 -0.12,0.14 -0.18,0.36 -0.18,0.65zm3.15 -1.66l1.19 0 0 0.54c0.12,-0.24 0.24,-0.4 0.36,-0.49 0.12,-0.08 0.27,-0.13 0.45,-0.13 0.19,0 0.39,0.06 0.61,0.18l-0.39 0.9c-0.15,-0.06 -0.27,-0.1 -0.36,-0.1 -0.16,0 -0.29,0.07 -0.38,0.21 -0.13,0.19 -0.2,0.56 -0.2,1.09l0 1.11 -1.28 0 0 -3.31zm6.6 1.97l-2.54 0c0.02,0.2 0.07,0.36 0.16,0.46 0.12,0.14 0.28,0.21 0.48,0.21 0.13,0 0.25,-0.03 0.36,-0.09 0.07,-0.04 0.14,-0.11 0.22,-0.21l1.25 0.12c-0.19,0.33 -0.42,0.57 -0.69,0.71 -0.27,0.14 -0.66,0.22 -1.16,0.22 -0.44,0 -0.79,-0.06 -1.04,-0.19 -0.25,-0.12 -0.46,-0.32 -0.63,-0.59 -0.16,-0.27 -0.24,-0.59 -0.24,-0.95 0,-0.52 0.16,-0.94 0.49,-1.26 0.34,-0.32 0.79,-0.48 1.38,-0.48 0.47,0 0.84,0.07 1.12,0.22 0.27,0.14 0.48,0.35 0.63,0.62 0.14,0.27 0.21,0.63 0.21,1.07l0 0.14zm-1.29 -0.61c-0.02,-0.24 -0.09,-0.42 -0.2,-0.53 -0.1,-0.1 -0.24,-0.16 -0.42,-0.16 -0.2,0 -0.36,0.09 -0.48,0.25 -0.08,0.1 -0.13,0.25 -0.15,0.44l1.25 0zm1.65 1.03l1.26 -0.11c0.05,0.15 0.12,0.25 0.21,0.32 0.1,0.06 0.22,0.09 0.38,0.09 0.17,0 0.3,-0.03 0.39,-0.11 0.08,-0.05 0.11,-0.12 0.11,-0.2 0,-0.09 -0.04,-0.16 -0.14,-0.21 -0.07,-0.04 -0.25,-0.08 -0.54,-0.13 -0.45,-0.08 -0.75,-0.15 -0.92,-0.22 -0.17,-0.06 -0.32,-0.17 -0.44,-0.33 -0.11,-0.16 -0.17,-0.33 -0.17,-0.53 0,-0.22 0.06,-0.41 0.19,-0.57 0.12,-0.16 0.3,-0.27 0.52,-0.35 0.22,-0.08 0.52,-0.12 0.89,-0.12 0.4,0 0.69,0.03 0.88,0.09 0.19,0.06 0.34,0.16 0.47,0.28 0.12,0.13 0.23,0.3 0.31,0.52l-1.2 0.11c-0.03,-0.1 -0.08,-0.18 -0.16,-0.23 -0.09,-0.06 -0.21,-0.1 -0.36,-0.1 -0.14,0 -0.24,0.03 -0.31,0.08 -0.06,0.05 -0.1,0.11 -0.1,0.18 0,0.09 0.05,0.15 0.13,0.19 0.08,0.04 0.26,0.08 0.54,0.11 0.42,0.05 0.73,0.12 0.94,0.2 0.2,0.09 0.36,0.21 0.47,0.36 0.11,0.16 0.16,0.34 0.16,0.53 0,0.19 -0.05,0.37 -0.17,0.55 -0.11,0.19 -0.3,0.33 -0.54,0.44 -0.25,0.1 -0.59,0.16 -1.02,0.16 -0.6,0 -1.03,-0.09 -1.29,-0.26 -0.25,-0.18 -0.42,-0.42 -0.49,-0.74zm3.85 -3.65l2.5 0 0 0.61 -0.89 0 0 1.93 -0.73 0 0 -1.93 -0.88 0 0 -0.61zm2.78 0l1.12 0 0.35 1.39 0.37 -1.39 1.08 0 0 2.54 -0.69 0 0 -1.79 -0.48 1.79 -0.57 0 -0.47 -1.79 0 1.79 -0.71 0 0 -2.54z"/>
  <path class="fil1" d="M22.6 20.18l2.62 0 0 -3.39 -2.62 -2.63 0 6.02zm6.21 -4.71l4.37 -2.9 0 -3.15 -6.27 4.15 -4.2 -3.98 -0.14 0 0 3.39 7.22 7.2 3.72 0 -4.7 -4.71zm6.91 -5.88l0 1.31 2.63 2.63 0 -3.94 -2.63 0zm0 10.59l2.63 0 0 -5.47 -2.63 -2.63 0 8.1zm4.81 0l2.63 0 0 -3.46 -2.63 -2.62 0 6.08zm7.14 -8.27l0 4.4 -6.74 -6.74 -0.42 0 0 3.3 7.31 7.31 2.47 0 0 -10.9 -2.62 2.63zm12.88 1.9l2.78 0c-1.22,-4.88 -7.04,-6.19 -10.02,-2.01l1.99 1.99c1.14,-2.49 4.45,-2.4 5.25,0.02zm-5.42 1.14l-2.28 -2.28c-2.61,7.82 8.53,10.86 10.48,3.07l-2.78 0c-1.24,2.88 -5.42,2 -5.42,-0.79zm10.37 5.23l2.62 0 0 -3.7 -2.62 -2.62 0 6.32zm6.6 -10.61l0 4 -1.99 0 -1.99 -1.99 0 -2.01 -2.62 0 0 3.1 3.52 3.53 3.08 0 0 3.98 2.63 0 0 -10.59 -2.63 -0.02zm4.81 10.61l3.07 0 2.99 -4.92 -1.53 -2.54 -4.53 7.46zm6.55 -10.79l-1.54 2.52 5.01 8.27 3.07 0 -6.54 -10.79zm8.75 10.79l2.62 0 0 -3.46 -2.62 -2.62 0 6.08zm7.13 -8.27l0 4.4 -6.74 -6.74 -0.42 0 0 3.3 2.63 2.63 1.68 1.68 3 3 2.47 0 0 -10.9 -2.62 2.63zm12.64 2.07l2.71 0c-0.37,-1.52 -0.9,-2.58 -2.23,-3.49 -0.89,-0.62 -1.94,-0.94 -3.02,-0.94 -1.73,0 -3.05,0.74 -4.15,2.03l1.88 1.89c1.15,-1.92 4.09,-1.66 4.81,0.51zm-1.97 1.78l0.97 1.31c-1.95,1.37 -4.62,-0.43 -4.16,-2.75l-2.04 -2.04c-0.43,0.86 -0.65,1.59 -0.65,2.57 0,1.43 0.55,2.77 1.55,3.77 1.01,1.01 2.34,1.56 3.76,1.56 0.94,0 1.86,-0.24 2.67,-0.72l0 0.67 2.63 0 0 -4.37 -4.73 0zm9.54 1.79l0 -0.74 -2.62 -2.63 0 6 8.83 0 0 -2.63 -6.21 0zm6.21 -1.35l0 -2.63 -4.57 0 -1.38 -1.38 5.93 0 0 -2.62 -8.84 0 0 3.41 3.2 3.19 5.66 0.03zm8.95 0c2.02,0 3.41,-1.54 3.41,-3.53 0,-1.68 -1.37,-3.06 -3.06,-3.06l-7.09 0 0 3.87 6.76 6.74 4.07 0 -4.09 -4.02zm-0.15 -2.58l-2.52 0 -1.24 -1.25 4.49 0c0,0.58 0.03,1.25 -0.73,1.25zm-6.54 6.71l2.62 0 0 -2.91 -2.62 -2.62 0 5.53z"/>
  <path class="fil1" d="M7.47 0l4.94 4.94 7.79 0 0 -4.94 -12.73 0zm7.73 7.82c-2.98,0 -5.95,0 -8.93,0 -0.69,0 -1.28,-0.58 -1.28,-1.28 0,-0.7 0.59,-1.28 1.28,-1.28l3.7 0 -4.86 -4.85c-7.98,2.28 -5.86,12.41 1.16,12.41l7.53 0c0.7,0 1.28,0.58 1.28,1.28 0,0.7 -0.58,1.28 -1.28,1.28l-13.75 0 0 4.94 13.75 0c3.47,0 6.23,-2.79 6.23,-6.22 0,-2.71 -1.67,-6.28 -4.83,-6.28z"/>
 </g>
</svg>
