<?xml version="1.0" encoding="UTF-8"?>
<!DOCTYPE svg PUBLIC "-//W3C//DTD SVG 1.1//EN" "http://www.w3.org/Graphics/SVG/1.1/DTD/svg11.dtd">
<!-- Creator: CorelDRAW -->
<svg xmlns="http://www.w3.org/2000/svg" xml:space="preserve" width="53.8427mm" height="7.945mm" version="1.1" style="shape-rendering:geometricPrecision; text-rendering:geometricPrecision; image-rendering:optimizeQuality; fill-rule:evenodd; clip-rule:evenodd"
viewBox="0 0 2438.91 359.88"
 xmlns:xlink="http://www.w3.org/1999/xlink"
 xmlns:xodm="http://www.corel.com/coreldraw/odm/2003">
 <defs>
  <style type="text/css">
   <![CDATA[
    .str0 {stroke:#373435;stroke-width:3.45;stroke-miterlimit:22.9256}
    .fil1 {fill:#FEFEFE;fill-rule:nonzero}
    .fil0 {fill:#848688;fill-rule:nonzero}
   ]]>
  </style>
 </defs>
 <g id="Camada_x0020_1">
  <metadata id="CorelCorpID_0Corel-Layer"/>
  <path class="fil0" d="M401.14 44.18l69.91 0 0 16.01 -44.89 46.85 46.57 0 0 17.23 -75.95 0 0 -16.63 44.42 -46.35 -40.06 0 0 -17.11zm82.79 0l24.72 0 0 30.26 25.93 -30.26 32.9 0 -29.23 30.09 30.58 50 -30.44 0 -16.89 -32.89 -12.84 13.39 0 19.5 -24.72 0 0 -80.09zm126.12 53.6l23.49 -1.48c0.5,3.8 1.55,6.71 3.11,8.69 2.55,3.23 6.19,4.85 10.93,4.85 3.52,0 6.25,-0.82 8.15,-2.48 1.92,-1.66 2.87,-3.58 2.87,-5.76 0,-2.07 -0.89,-3.93 -2.7,-5.57 -1.81,-1.64 -6.02,-3.17 -12.64,-4.64 -10.85,-2.42 -18.57,-5.67 -23.19,-9.71 -4.66,-4.03 -6.99,-9.17 -6.99,-15.44 0,-4.1 1.19,-7.98 3.58,-11.63 2.39,-3.67 5.97,-6.55 10.76,-8.63 4.79,-2.09 11.35,-3.13 19.69,-3.13 10.24,0 18.03,1.9 23.4,5.72 5.37,3.8 8.56,9.86 9.58,18.18l-23.27 1.38c-0.61,-3.64 -1.92,-6.28 -3.9,-7.93 -1.99,-1.66 -4.73,-2.48 -8.22,-2.48 -2.87,0 -5.05,0.62 -6.5,1.83 -1.45,1.21 -2.18,2.7 -2.18,4.46 0,1.27 0.6,2.41 1.77,3.43 1.14,1.06 3.9,2.03 8.26,2.95 10.81,2.33 18.55,4.7 23.21,7.08 4.68,2.38 8.09,5.33 10.21,8.87 2.12,3.52 3.19,7.47 3.19,11.85 0,5.13 -1.42,9.86 -4.25,14.21 -2.85,4.33 -6.8,7.63 -11.91,9.87 -5.09,2.23 -11.5,3.35 -19.26,3.35 -13.61,0 -23.04,-2.63 -28.28,-7.86 -5.24,-5.24 -8.2,-11.89 -8.89,-19.97zm148 3l-44.63 0c0.41,3.56 1.36,6.23 2.91,7.98 2.14,2.51 4.96,3.76 8.43,3.76 2.2,0 4.29,-0.54 6.25,-1.62 1.21,-0.69 2.51,-1.9 3.9,-3.63l21.92 2.01c-3.36,5.82 -7.4,10.01 -12.14,12.53 -4.73,2.53 -11.54,3.8 -20.39,3.8 -7.7,0 -13.74,-1.08 -18.16,-3.26 -4.4,-2.16 -8.05,-5.61 -10.96,-10.33 -2.89,-4.73 -4.34,-10.29 -4.34,-16.66 0,-9.08 2.91,-16.44 8.72,-22.06 5.8,-5.61 13.83,-8.43 24.07,-8.43 8.31,0 14.86,1.27 19.67,3.79 4.81,2.52 8.48,6.15 11,10.94 2.52,4.77 3.76,11 3.76,18.66l0 2.51zm-22.59 -10.63c-0.43,-4.33 -1.6,-7.42 -3.48,-9.28 -1.88,-1.87 -4.34,-2.8 -7.42,-2.8 -3.54,0 -6.38,1.42 -8.5,4.24 -1.35,1.75 -2.2,4.36 -2.57,7.85l21.98 0zm33 -23.93l20.84 0 0 9.47c2.02,-4.12 4.09,-6.96 6.21,-8.5 2.14,-1.55 4.77,-2.31 7.9,-2.31 3.3,0 6.9,1.03 10.79,3.08l-6.9 15.79c-2.63,-1.1 -4.72,-1.64 -6.25,-1.64 -2.91,0 -5.18,1.21 -6.79,3.62 -2.29,3.39 -3.45,9.75 -3.45,19.05l0 19.5 -22.37 0 0 -58.05zm49.33 0l23.13 0 11.26 36.78 11.63 -36.78 22.43 0 -24.61 58.05 -19.73 0 -24.12 -58.05zm75.7 -22.04l22.26 0 0 15.1 -22.26 0 0 -15.1zm0 22.04l22.26 0 0 58.05 -22.26 0 0 -58.05zm97.54 -22.04l0 80.09 -20.85 0 0 -8.59c-2.91,3.65 -5.57,6.13 -7.98,7.42 -3.19,1.68 -6.77,2.51 -10.7,2.51 -7.89,0 -13.92,-3 -18.1,-9.02 -4.16,-6.02 -6.25,-13.34 -6.25,-21.94 0,-9.64 2.31,-17 6.92,-22.11 4.61,-5.11 10.44,-7.66 17.54,-7.66 3.47,0 6.6,0.58 9.41,1.73 2.84,1.18 5.34,2.91 7.51,5.24l0 -27.67 22.49 0zm-22.32 50.84c0,-4.57 -0.97,-7.98 -2.89,-10.22 -1.92,-2.26 -4.36,-3.37 -7.31,-3.37 -2.57,0 -4.74,1.08 -6.49,3.24 -1.73,2.15 -2.61,5.76 -2.61,10.85 0,4.75 0.9,8.22 2.7,10.44 1.79,2.22 4.03,3.32 6.68,3.32 2.83,0 5.18,-1.12 7.08,-3.34 1.88,-2.24 2.83,-5.87 2.83,-10.92zm33.17 0.39c0,-8.87 2.98,-16.18 8.95,-21.92 5.97,-5.74 14.01,-8.62 24.16,-8.62 11.61,0 20.38,3.37 26.31,10.12 4.75,5.44 7.14,12.14 7.14,20.08 0,8.95 -2.94,16.26 -8.86,21.98 -5.91,5.71 -14.09,8.56 -24.53,8.56 -9.3,0 -16.84,-2.36 -22.58,-7.12 -7.07,-5.87 -10.59,-13.57 -10.59,-23.08zm22.26 -0.04c0,5.2 1.05,9.04 3.13,11.52 2.08,2.48 4.7,3.73 7.86,3.73 3.19,0 5.8,-1.23 7.85,-3.67 2.05,-2.45 3.08,-6.38 3.08,-11.79 0,-5.05 -1.02,-8.8 -3.09,-11.28 -2.07,-2.46 -4.62,-3.69 -7.68,-3.69 -3.23,0 -5.89,1.25 -7.99,3.75 -2.11,2.51 -3.15,6.32 -3.15,11.43zm55.26 -29.16l20.84 0 0 9.47c2.02,-4.12 4.09,-6.96 6.21,-8.5 2.14,-1.55 4.77,-2.31 7.9,-2.31 3.3,0 6.9,1.03 10.79,3.08l-6.9 15.79c-2.63,-1.1 -4.72,-1.64 -6.25,-1.64 -2.91,0 -5.18,1.21 -6.79,3.62 -2.29,3.39 -3.45,9.75 -3.45,19.05l0 19.5 -22.37 0 0 -58.05zm115.66 34.56l-44.63 0c0.41,3.56 1.36,6.23 2.91,7.98 2.14,2.51 4.96,3.76 8.43,3.76 2.2,0 4.29,-0.54 6.25,-1.62 1.21,-0.69 2.51,-1.9 3.9,-3.63l21.92 2.01c-3.36,5.82 -7.4,10.01 -12.14,12.53 -4.73,2.53 -11.54,3.8 -20.39,3.8 -7.7,0 -13.74,-1.08 -18.16,-3.26 -4.4,-2.16 -8.05,-5.61 -10.96,-10.33 -2.89,-4.73 -4.34,-10.29 -4.34,-16.66 0,-9.08 2.91,-16.44 8.72,-22.06 5.8,-5.61 13.83,-8.43 24.07,-8.43 8.31,0 14.86,1.27 19.67,3.79 4.81,2.52 8.48,6.15 11,10.94 2.52,4.77 3.76,11 3.76,18.66l0 2.51zm-22.59 -10.63c-0.43,-4.33 -1.6,-7.42 -3.48,-9.28 -1.88,-1.87 -4.34,-2.8 -7.42,-2.8 -3.54,0 -6.38,1.42 -8.5,4.24 -1.35,1.75 -2.2,4.36 -2.57,7.85l21.98 0zm28.86 18.01l22.04 -2.01c0.91,2.61 2.18,4.47 3.82,5.59 1.64,1.12 3.82,1.68 6.56,1.68 2.99,0 5.3,-0.63 6.94,-1.92 1.29,-0.93 1.92,-2.12 1.92,-3.54 0,-1.6 -0.84,-2.85 -2.51,-3.73 -1.2,-0.62 -4.38,-1.38 -9.54,-2.3 -7.72,-1.34 -13.07,-2.59 -16.09,-3.75 -3,-1.14 -5.52,-3.09 -7.59,-5.82 -2.05,-2.74 -3.08,-5.85 -3.08,-9.36 0,-3.82 1.1,-7.12 3.32,-9.88 2.22,-2.78 5.28,-4.85 9.17,-6.21 3.9,-1.36 9.12,-2.05 15.66,-2.05 6.9,0 12.01,0.53 15.29,1.59 3.3,1.06 6.04,2.7 8.24,4.92 2.2,2.24 4.03,5.24 5.48,9.04l-21.03 2.01c-0.54,-1.84 -1.45,-3.2 -2.72,-4.08 -1.73,-1.16 -3.84,-1.73 -6.32,-1.73 -2.5,0 -4.33,0.45 -5.46,1.35 -1.14,0.89 -1.72,1.97 -1.72,3.24 0,1.44 0.73,2.5 2.17,3.23 1.43,0.74 4.6,1.4 9.47,1.97 7.4,0.84 12.88,2.02 16.5,3.51 3.6,1.49 6.36,3.61 8.26,6.39 1.92,2.78 2.87,5.82 2.87,9.14 0,3.36 -1.01,6.62 -3.04,9.79 -2.02,3.17 -5.2,5.68 -9.54,7.57 -4.34,1.88 -10.27,2.81 -17.77,2.81 -10.59,0 -18.14,-1.51 -22.63,-4.55 -4.49,-3.02 -7.38,-7.32 -8.65,-12.9zm67.54 -63.98l43.74 0 0 10.63 -15.55 0 0 33.89 -12.86 0 0 -33.89 -15.33 0 0 -10.63zm48.77 0l19.52 0 6.19 24.31 6.49 -24.31 18.92 0 0 44.52 -12.08 0 0 -31.47 -8.37 31.47 -10.1 0 -8.26 -31.47 0 31.47 -12.3 0 0 -44.52z"/>
  <path class="fil1 str0" d="M397.46 355.47l46.02 0 0 -59.44 -46.02 -46.02 0 105.46zm108.92 -82.45l75.17 -49.86 1.53 -1.15 0 -55.23 -110.07 72.87 -73.63 -69.8 -2.3 0 0 59.45 126.56 126.17 65.2 0 -82.45 -82.45zm121.19 -103.17l0 23.01 46.02 46.02 0 -69.03 -46.02 0zm0 185.62l46.02 0 0 -95.88 -46.02 -46.02 0 141.9zm84.37 0l46.02 0 0 -60.59 -46.02 -46.02 0 106.62zm126.18 -146.12l-1.15 1.15 0 77.09 -116.97 -116.97 -1.15 -1.15 -7.28 0 0 57.91 46.02 46.02 0 0 29.53 29.53 50.62 50.62 1.92 1.92 43.34 0 0 -190.99 -44.87 44.87zm135.38 29.15c2.3,-4.6 5.37,-8.82 9.2,-12.66 9.2,-9.2 21.48,-14.19 34.52,-14.19 13.04,0 25.31,4.99 34.52,14.19 4.6,4.6 8.05,9.97 10.35,15.72l0.77 2.3 48.71 0 -1.15 -4.6c-4.6,-20.71 -16.49,-39.5 -33.37,-52.92 -16.87,-13.81 -38.35,-21.48 -60.21,-21.48 -31.45,0 -60.98,15.34 -79,41.03l-1.92 2.69 34.9 34.9 2.69 -4.98zm87.44 40.65c-2.3,5.75 -5.75,11.12 -10.35,15.73 -3.84,3.83 -8.05,6.9 -12.66,9.2 -1.54,0.77 -3.07,1.53 -4.6,1.92 -4.6,1.92 -9.59,3.07 -14.57,3.45 -2.3,0 -4.6,0 -6.9,0 -11.51,-0.77 -22.25,-5.75 -30.3,-13.81 -8.05,-8.05 -13.04,-18.79 -13.81,-30.3l0 -1.53 -39.88 -39.89 -1.92 5.75c-3.45,10.35 -5.37,21.09 -5.37,31.83 0,25.69 9.97,49.85 28,67.88 18.02,18.02 42.19,27.99 67.88,27.99 13.04,0 25.69,-2.68 37.58,-7.67 2.3,-0.77 4.6,-1.92 6.9,-3.07 12.27,-6.52 23.4,-15.73 31.83,-26.46 8.44,-11.12 14.58,-24.16 17.64,-37.97l1.15 -4.6 -48.71 0 -1.92 1.53zm88.59 76.32l46.02 0 0 -64.82 -46.02 -46.02 0 110.84zm115.82 -186l0 70.18 -34.9 0 -34.9 -34.9 0 -35.28 -46.02 0 0 54.46 61.75 61.75 54.08 0 0 69.8 46.02 0 0 -185.62 -46.02 -0.38zm84.37 186l53.69 0 52.54 -86.29 -26.85 -44.49 -79.39 130.78zm114.67 -189.07l-26.85 44.11 76.7 126.94 11.12 18.02 53.69 0 -114.67 -189.07zm153.4 189.07l46.02 0 0 -60.59 -46.02 -46.02 0 106.62zm126.18 -146.12l-1.15 1.15 0 77.09 -116.97 -116.97 -1.15 -1.15 -7.28 0 0 57.91 46.02 46.02 0 0 29.53 29.53 50.62 50.62 1.92 1.92 43.34 0 0 -190.99 -44.87 44.87zm138.45 25.44c1.54,-1.92 3.07,-3.9 4.6,-5.43 8.82,-8.89 20.71,-13.87 33.37,-13.87 12.66,0 24.55,4.98 33.37,13.87 4.22,4.28 7.67,9.27 9.97,15.08l0.77 2.3 47.56 0 -1.15 -4.6c-4.99,-23.2 -18.41,-43.15 -37.97,-56.57 -15.73,-10.74 -34.14,-16.49 -52.92,-16.49 -27.23,0 -52.92,11.89 -70.57,32.98l-2.3 2.69 32.98 33.11 2.3 -3.07zm47.56 43.21l16.87 23.01c-7.67,5.37 -16.87,8.05 -26.46,8.05 -12.66,0 -24.54,-4.98 -33.37,-13.87 -8.82,-8.82 -13.81,-20.77 -13.81,-33.49 0,-2.3 0,-4.6 0.39,-6.97l0.39 -1.92 -35.67 -35.79 -2.3 4.6c-6.14,12.72 -9.2,26.21 -9.2,40.46 0,25.05 9.58,48.51 27.23,66.16 17.64,17.64 41.03,27.23 65.97,27.23 16.49,0 32.6,-4.22 46.79,-12.66l0 11.89 46.02 0 0 -76.71 -82.84 0zm167.21 31.45l0 -13.04 -46.02 -46.02 0 105.08 154.94 0 0 -46.02 -108.92 0zm108.92 -23.78l0 -46.02 -80.16 0 -24.16 -24.16 103.93 0 0 -46.02 -154.94 0 0 59.83 55.99 55.99 99.33 0.39zm156.85 0c0.77,0 1.54,0 2.3,0l0.77 0 0 0c14.96,-0.39 28.76,-6.52 39.12,-16.88 10.35,-10.35 16.49,-24.16 17.26,-39.12 0.39,-1.92 0.39,-3.83 0.39,-5.75 0,-4.22 -0.39,-8.43 -1.54,-12.66 -2.3,-9.58 -7.29,-18.41 -14.19,-25.31 -7.67,-7.67 -17.26,-12.66 -27.61,-14.57 -3.45,-0.77 -6.9,-1.15 -10.35,-1.15l-124.26 0 0 67.88 46.02 46.02 0 0 71.33 70.95 1.15 1.15 71.33 0 -71.72 -70.56zm-2.68 -45.26l-44.11 0 -21.86 -21.86 80.54 0c11.41,-0.21 -5.32,21.91 -14.57,21.86zm-114.67 117.74l46.02 0 0 -51.01 -46.02 -46.02 0 97.03z"/>
  <path class="fil1 str0" d="M132.21 1.73l86.65 86.65 136.6 0 0 -86.65 -223.25 0zm135.58 137.11l-0.51 0c-51.99,0 -103.98,0 -155.98,0 -12.23,0 -22.43,-10.19 -22.43,-22.43 0,-12.23 10.2,-22.43 22.43,-22.43l64.73 0 -85.12 -85.12 -3.57 1.02c-2.55,0.51 -5.1,1.02 -7.65,2.04 -17.33,5.1 -33.13,14.78 -45.87,27.52 -12.74,12.75 -22.43,28.55 -27.53,45.88 -3.06,10.19 -4.58,20.9 -4.58,31.6 0,10.7 1.53,21.41 4.58,31.6 5.1,17.33 14.78,33.13 27.53,45.88 12.74,12.74 28.55,22.43 45.87,27.52 10.2,3.06 20.9,4.59 31.6,4.59l132.02 0c12.23,0 22.43,10.2 22.43,22.43 0,12.23 -10.19,22.43 -22.43,22.43l-241.1 0 0 86.65 241.1 0c23.96,0 46.9,-7.65 65.75,-21.91 18.35,-13.77 32.11,-33.64 38.74,-55.56 3.06,-10.19 4.59,-20.9 4.59,-31.6 0,-47.48 -29.2,-110.1 -84.61,-110.1z"/>
 </g>
</svg>
